<?xml version="1.0" encoding="UTF-8"?>
<svg xmlns="http://www.w3.org/2000/svg" xmlns:xlink="http://www.w3.org/1999/xlink" width="327.941pt" height="53.182pt" viewBox="0 0 327.941 53.182">
<defs>
<g>
<g id="glyph-0-0">
<path d="M 3.25 17.546875 L 3.9375 17.546875 L 3.9375 0.296875 L 6.5625 0.296875 L 6.5625 -0.390625 L 3.25 -0.390625 Z M 3.25 17.546875 "/>
</g>
<g id="glyph-0-1">
<path d="M 3.25 5.984375 L 3.9375 5.984375 L 3.9375 -0.015625 L 3.25 -0.015625 Z M 3.25 5.984375 "/>
</g>
<g id="glyph-0-2">
<path d="M 3.25 17.53125 L 6.5625 17.53125 L 6.5625 16.84375 L 3.9375 16.84375 L 3.9375 -0.40625 L 3.25 -0.40625 Z M 3.25 17.53125 "/>
</g>
<g id="glyph-0-3">
<path d="M 2.703125 17.546875 L 3.390625 17.546875 L 3.390625 -0.390625 L 0.0625 -0.390625 L 0.0625 0.296875 L 2.703125 0.296875 Z M 2.703125 17.546875 "/>
</g>
<g id="glyph-0-4">
<path d="M 2.703125 5.984375 L 3.390625 5.984375 L 3.390625 -0.015625 L 2.703125 -0.015625 Z M 2.703125 5.984375 "/>
</g>
<g id="glyph-0-5">
<path d="M 2.703125 16.84375 L 0.0625 16.84375 L 0.0625 17.53125 L 3.390625 17.53125 L 3.390625 -0.40625 L 2.703125 -0.40625 Z M 2.703125 16.84375 "/>
</g>
<g id="glyph-1-0">
<path d="M 7.1875 -3.375 C 7.1875 -5.40625 5.6875 -7.03125 3.875 -7.03125 C 2.078125 -7.03125 0.5625 -5.4375 0.5625 -3.375 C 0.5625 -1.328125 2.09375 0.21875 3.875 0.21875 C 5.6875 0.21875 7.1875 -1.359375 7.1875 -3.375 Z M 3.875 -0.046875 C 2.921875 -0.046875 1.578125 -0.921875 1.578125 -3.515625 C 1.578125 -6.09375 3.046875 -6.78125 3.875 -6.78125 C 4.734375 -6.78125 6.15625 -6.078125 6.15625 -3.515625 C 6.15625 -0.875 4.796875 -0.046875 3.875 -0.046875 Z M 3.875 -0.046875 "/>
</g>
<g id="glyph-1-1">
<path d="M 2.3125 -6.671875 C 2.21875 -6.796875 2.21875 -6.8125 2.03125 -6.8125 L 0.328125 -6.8125 L 0.328125 -6.5 L 0.625 -6.5 C 0.765625 -6.5 0.96875 -6.484375 1.109375 -6.484375 C 1.34375 -6.453125 1.359375 -6.4375 1.359375 -6.25 L 1.359375 -1.046875 C 1.359375 -0.78125 1.359375 -0.3125 0.328125 -0.3125 L 0.328125 0 C 0.671875 -0.015625 1.171875 -0.03125 1.5 -0.03125 C 1.828125 -0.03125 2.3125 -0.015625 2.65625 0 L 2.65625 -0.3125 C 1.640625 -0.3125 1.640625 -0.78125 1.640625 -1.046875 L 1.640625 -6.234375 C 1.6875 -6.1875 1.6875 -6.171875 1.734375 -6.109375 L 5.796875 -0.125 C 5.890625 -0.015625 5.90625 0 5.96875 0 C 6.109375 0 6.109375 -0.0625 6.109375 -0.265625 L 6.109375 -5.765625 C 6.109375 -6.03125 6.109375 -6.5 7.140625 -6.5 L 7.140625 -6.8125 C 6.78125 -6.796875 6.296875 -6.78125 5.96875 -6.78125 C 5.640625 -6.78125 5.15625 -6.796875 4.8125 -6.8125 L 4.8125 -6.5 C 5.828125 -6.5 5.828125 -6.03125 5.828125 -5.765625 L 5.828125 -1.5 Z M 2.3125 -6.671875 "/>
</g>
<g id="glyph-2-0">
<path d="M 6.5625 -2.296875 C 6.734375 -2.296875 6.921875 -2.296875 6.921875 -2.5 C 6.921875 -2.6875 6.734375 -2.6875 6.5625 -2.6875 L 1.171875 -2.6875 C 1 -2.6875 0.828125 -2.6875 0.828125 -2.5 C 0.828125 -2.296875 1 -2.296875 1.171875 -2.296875 Z M 6.5625 -2.296875 "/>
</g>
</g>
<clipPath id="clip-0">
<path clip-rule="nonzero" d="M 10 39 L 25 39 L 25 53.183594 L 10 53.183594 Z M 10 39 "/>
</clipPath>
<clipPath id="clip-1">
<path clip-rule="nonzero" d="M 19 39 L 35 39 L 35 53.183594 L 19 53.183594 Z M 19 39 "/>
</clipPath>
<clipPath id="clip-2">
<path clip-rule="nonzero" d="M 44 39 L 60 39 L 60 53.183594 L 44 53.183594 Z M 44 39 "/>
</clipPath>
<clipPath id="clip-3">
<path clip-rule="nonzero" d="M 54 39 L 70 39 L 70 53.183594 L 54 53.183594 Z M 54 39 "/>
</clipPath>
<clipPath id="clip-4">
<path clip-rule="nonzero" d="M 142 39 L 158 39 L 158 53.183594 L 142 53.183594 Z M 142 39 "/>
</clipPath>
<clipPath id="clip-5">
<path clip-rule="nonzero" d="M 167 39 L 183 39 L 183 53.183594 L 167 53.183594 Z M 167 39 "/>
</clipPath>
<clipPath id="clip-6">
<path clip-rule="nonzero" d="M 177 39 L 192 39 L 192 53.183594 L 177 53.183594 Z M 177 39 "/>
</clipPath>
<clipPath id="clip-7">
<path clip-rule="nonzero" d="M 255 39 L 271 39 L 271 53.183594 L 255 53.183594 Z M 255 39 "/>
</clipPath>
<clipPath id="clip-8">
<path clip-rule="nonzero" d="M 265 39 L 280 39 L 280 53.183594 L 265 53.183594 Z M 265 39 "/>
</clipPath>
<clipPath id="clip-9">
<path clip-rule="nonzero" d="M 290 39 L 305 39 L 305 53.183594 L 290 53.183594 Z M 290 39 "/>
</clipPath>
</defs>
<g fill="rgb(0%, 0%, 0%)" fill-opacity="1">
<use xlink:href="#glyph-0-0" x="5.669" y="6.068"/>
</g>
<g fill="rgb(0%, 0%, 0%)" fill-opacity="1">
<use xlink:href="#glyph-0-1" x="5.669" y="23.602"/>
</g>
<g fill="rgb(0%, 0%, 0%)" fill-opacity="1">
<use xlink:href="#glyph-0-2" x="5.669" y="29.978"/>
</g>
<g fill="rgb(0%, 0%, 0%)" fill-opacity="1">
<use xlink:href="#glyph-1-0" x="18.488" y="44.939"/>
</g>
<path fill-rule="nonzero" fill="rgb(0%, 0%, 0%)" fill-opacity="1" stroke-width="0.3985" stroke-linecap="butt" stroke-linejoin="miter" stroke="rgb(0%, 0%, 0%)" stroke-opacity="1" stroke-miterlimit="10" d="M 0.602406 0.601844 C 0.852406 0.351844 1.258656 0.351844 1.512563 0.601844 C 1.762563 0.851844 1.762563 1.262 1.512563 1.512 C 1.258656 1.762 0.852406 1.762 0.602406 1.512 C 0.352406 1.262 0.352406 0.851844 0.602406 0.601844 Z M -1.510875 -1.511437 C -1.260875 -1.761437 -0.854625 -1.761437 -0.600719 -1.511437 C -0.350719 -1.261437 -0.350719 -0.851281 -0.600719 -0.601281 C -0.854625 -0.351281 -1.260875 -0.351281 -1.510875 -0.601281 C -1.764781 -0.851281 -1.764781 -1.261437 -1.510875 -1.511437 Z M -1.510875 -1.511437 " transform="matrix(1, 0, 0, -1, 17.464, 36.637)"/>
<path fill-rule="nonzero" fill="rgb(0%, 0%, 0%)" fill-opacity="1" d="M 16.863281 45.832031 C 17.113281 45.578125 17.113281 45.171875 16.863281 44.921875 C 16.609375 44.671875 16.203125 44.671875 15.953125 44.921875 C 15.699219 45.171875 15.699219 45.578125 15.953125 45.832031 C 16.203125 46.082031 16.609375 46.082031 16.863281 45.832031 Z M 18.976562 47.945312 C 19.226562 47.695312 19.226562 47.285156 18.976562 47.035156 C 18.722656 46.785156 18.316406 46.785156 18.066406 47.035156 C 17.816406 47.285156 17.816406 47.695312 18.066406 47.945312 C 18.316406 48.195312 18.722656 48.195312 18.976562 47.945312 Z M 18.976562 47.945312 "/>
<g clip-path="url(#clip-0)">
<path fill="none" stroke-width="0.3985" stroke-linecap="butt" stroke-linejoin="miter" stroke="rgb(0%, 0%, 0%)" stroke-opacity="1" stroke-miterlimit="10" d="M -0.600719 0.600969 C -0.350719 0.854875 -0.350719 1.261125 -0.600719 1.511125 C -0.854625 1.761125 -1.260875 1.761125 -1.510875 1.511125 C -1.764781 1.261125 -1.764781 0.854875 -1.510875 0.600969 C -1.260875 0.350969 -0.854625 0.350969 -0.600719 0.600969 Z M 1.512563 -1.512312 C 1.762563 -1.262312 1.762563 -0.852156 1.512563 -0.602156 C 1.258656 -0.352156 0.852406 -0.352156 0.602406 -0.602156 C 0.352406 -0.852156 0.352406 -1.262312 0.602406 -1.512312 C 0.852406 -1.762312 1.258656 -1.762312 1.512563 -1.512312 Z M 1.512563 -1.512312 " transform="matrix(1, 0, 0, -1, 17.464, 46.433)"/>
</g>
<path fill-rule="nonzero" fill="rgb(0%, 0%, 0%)" fill-opacity="1" d="M 26.660156 47.035156 C 26.40625 46.785156 26 46.785156 25.75 47.035156 C 25.496094 47.285156 25.496094 47.695312 25.75 47.945312 C 26 48.195312 26.40625 48.195312 26.660156 47.945312 C 26.910156 47.695312 26.910156 47.285156 26.660156 47.035156 Z M 28.773438 44.921875 C 28.519531 44.671875 28.113281 44.671875 27.863281 44.921875 C 27.609375 45.171875 27.609375 45.578125 27.863281 45.832031 C 28.113281 46.082031 28.519531 46.082031 28.773438 45.832031 C 29.023438 45.578125 29.023438 45.171875 28.773438 44.921875 Z M 28.773438 44.921875 "/>
<g clip-path="url(#clip-1)">
<path fill="none" stroke-width="0.3985" stroke-linecap="butt" stroke-linejoin="miter" stroke="rgb(0%, 0%, 0%)" stroke-opacity="1" stroke-miterlimit="10" d="M -0.599844 -0.602156 C -0.85375 -0.352156 -1.26 -0.352156 -1.51 -0.602156 C -1.763906 -0.852156 -1.763906 -1.262312 -1.51 -1.512312 C -1.26 -1.762312 -0.85375 -1.762312 -0.599844 -1.512312 C -0.349844 -1.262312 -0.349844 -0.852156 -0.599844 -0.602156 Z M 1.513438 1.511125 C 1.259531 1.761125 0.853281 1.761125 0.603281 1.511125 C 0.349375 1.261125 0.349375 0.854875 0.603281 0.600969 C 0.853281 0.350969 1.259531 0.350969 1.513438 0.600969 C 1.763438 0.854875 1.763438 1.261125 1.513438 1.511125 Z M 1.513438 1.511125 " transform="matrix(1, 0, 0, -1, 27.26, 46.433)"/>
</g>
<g fill="rgb(0%, 0%, 0%)" fill-opacity="1">
<use xlink:href="#glyph-1-1" x="35.882" y="34.976"/>
</g>
<path fill="none" stroke-width="0.3985" stroke-linecap="butt" stroke-linejoin="miter" stroke="rgb(0%, 0%, 0%)" stroke-opacity="1" stroke-miterlimit="10" d="M 5.598938 6.638219 L 11.79425 10.212438 " transform="matrix(1, 0, 0, -1, 22.362, 44.939)"/>
<g fill="rgb(0%, 0%, 0%)" fill-opacity="1">
<use xlink:href="#glyph-1-0" x="35.744" y="15.051"/>
</g>
<path fill-rule="nonzero" fill="rgb(0%, 0%, 0%)" fill-opacity="1" stroke-width="0.3985" stroke-linecap="butt" stroke-linejoin="miter" stroke="rgb(0%, 0%, 0%)" stroke-opacity="1" stroke-miterlimit="10" d="M 0.601187 -0.602562 C 0.351187 -0.852562 0.351187 -1.258812 0.601187 -1.512719 C 0.851187 -1.762719 1.261344 -1.762719 1.511344 -1.512719 C 1.761344 -1.258812 1.761344 -0.852562 1.511344 -0.602562 C 1.261344 -0.348656 0.851187 -0.348656 0.601187 -0.602562 Z M -1.512094 1.510719 C -1.762094 1.260719 -1.762094 0.854469 -1.512094 0.600563 C -1.262094 0.350563 -0.851938 0.350563 -0.601938 0.600563 C -0.351938 0.854469 -0.351938 1.260719 -0.601938 1.510719 C -0.851938 1.764625 -1.262094 1.764625 -1.512094 1.510719 Z M -1.512094 1.510719 " transform="matrix(1, 0, 0, -1, 44.516, 6.749)"/>
<path fill-rule="nonzero" fill="rgb(0%, 0%, 0%)" fill-opacity="1" stroke-width="0.3985" stroke-linecap="butt" stroke-linejoin="miter" stroke="rgb(0%, 0%, 0%)" stroke-opacity="1" stroke-miterlimit="10" d="M 0.600312 0.600563 C 0.854219 0.350563 1.260469 0.350563 1.510469 0.600563 C 1.764375 0.854469 1.764375 1.260719 1.510469 1.510719 C 1.260469 1.764625 0.854219 1.764625 0.600312 1.510719 C 0.350312 1.260719 0.350312 0.854469 0.600312 0.600563 Z M -1.512969 -1.512719 C -1.259063 -1.762719 -0.852813 -1.762719 -0.602813 -1.512719 C -0.348906 -1.258812 -0.348906 -0.852562 -0.602813 -0.602562 C -0.852813 -0.348656 -1.259063 -0.348656 -1.512969 -0.602562 C -1.762969 -0.852562 -1.762969 -1.258812 -1.512969 -1.512719 Z M -1.512969 -1.512719 " transform="matrix(1, 0, 0, -1, 34.72, 6.749)"/>
<path fill="none" stroke-width="0.3985" stroke-linecap="butt" stroke-linejoin="miter" stroke="rgb(0%, 0%, 0%)" stroke-opacity="1" stroke-miterlimit="10" d="M 16.259094 18.763219 L 16.259094 27.896031 " transform="matrix(1, 0, 0, -1, 22.362, 44.939)"/>
<path fill="none" stroke-width="0.3985" stroke-linecap="butt" stroke-linejoin="miter" stroke="rgb(0%, 0%, 0%)" stroke-opacity="1" stroke-miterlimit="10" d="M 18.251281 18.763219 L 18.251281 27.896031 " transform="matrix(1, 0, 0, -1, 22.362, 44.939)"/>
<g fill="rgb(0%, 0%, 0%)" fill-opacity="1">
<use xlink:href="#glyph-1-0" x="53" y="44.939"/>
</g>
<path fill-rule="nonzero" fill="rgb(0%, 0%, 0%)" fill-opacity="1" stroke-width="0.3985" stroke-linecap="butt" stroke-linejoin="miter" stroke="rgb(0%, 0%, 0%)" stroke-opacity="1" stroke-miterlimit="10" d="M 0.603 -0.601281 C 0.349094 -0.851281 0.349094 -1.261437 0.603 -1.511437 C 0.853 -1.761437 1.25925 -1.761437 1.513156 -1.511437 C 1.763156 -1.261437 1.763156 -0.851281 1.513156 -0.601281 C 1.25925 -0.351281 0.853 -0.351281 0.603 -0.601281 Z M -1.510281 1.512 C -1.764188 1.262 -1.764188 0.851844 -1.510281 0.601844 C -1.260281 0.351844 -0.854031 0.351844 -0.600125 0.601844 C -0.350125 0.851844 -0.350125 1.262 -0.600125 1.512 C -0.854031 1.762 -1.260281 1.762 -1.510281 1.512 Z M -1.510281 1.512 " transform="matrix(1, 0, 0, -1, 61.772, 36.637)"/>
<path fill-rule="nonzero" fill="rgb(0%, 0%, 0%)" fill-opacity="1" d="M 51.375 45.832031 C 51.625 45.578125 51.625 45.171875 51.375 44.921875 C 51.121094 44.671875 50.714844 44.671875 50.464844 44.921875 C 50.214844 45.171875 50.214844 45.578125 50.464844 45.832031 C 50.714844 46.082031 51.121094 46.082031 51.375 45.832031 Z M 53.488281 47.945312 C 53.738281 47.695312 53.738281 47.285156 53.488281 47.035156 C 53.238281 46.785156 52.828125 46.785156 52.578125 47.035156 C 52.328125 47.285156 52.328125 47.695312 52.578125 47.945312 C 52.828125 48.195312 53.238281 48.195312 53.488281 47.945312 Z M 53.488281 47.945312 "/>
<g clip-path="url(#clip-2)">
<path fill="none" stroke-width="0.3985" stroke-linecap="butt" stroke-linejoin="miter" stroke="rgb(0%, 0%, 0%)" stroke-opacity="1" stroke-miterlimit="10" d="M -0.601 0.600969 C -0.351 0.854875 -0.351 1.261125 -0.601 1.511125 C -0.854906 1.761125 -1.261156 1.761125 -1.511156 1.511125 C -1.761156 1.261125 -1.761156 0.854875 -1.511156 0.600969 C -1.261156 0.350969 -0.854906 0.350969 -0.601 0.600969 Z M 1.512281 -1.512312 C 1.762281 -1.262312 1.762281 -0.852156 1.512281 -0.602156 C 1.262281 -0.352156 0.852125 -0.352156 0.602125 -0.602156 C 0.352125 -0.852156 0.352125 -1.262312 0.602125 -1.512312 C 0.852125 -1.762312 1.262281 -1.762312 1.512281 -1.512312 Z M 1.512281 -1.512312 " transform="matrix(1, 0, 0, -1, 51.976, 46.433)"/>
</g>
<path fill-rule="nonzero" fill="rgb(0%, 0%, 0%)" fill-opacity="1" d="M 61.171875 47.035156 C 60.917969 46.785156 60.511719 46.785156 60.261719 47.035156 C 60.007812 47.285156 60.007812 47.695312 60.261719 47.945312 C 60.511719 48.195312 60.917969 48.195312 61.171875 47.945312 C 61.421875 47.695312 61.421875 47.285156 61.171875 47.035156 Z M 63.285156 44.921875 C 63.03125 44.671875 62.625 44.671875 62.375 44.921875 C 62.121094 45.171875 62.121094 45.578125 62.375 45.832031 C 62.625 46.082031 63.03125 46.082031 63.285156 45.832031 C 63.535156 45.578125 63.535156 45.171875 63.285156 44.921875 Z M 63.285156 44.921875 "/>
<g clip-path="url(#clip-3)">
<path fill="none" stroke-width="0.3985" stroke-linecap="butt" stroke-linejoin="miter" stroke="rgb(0%, 0%, 0%)" stroke-opacity="1" stroke-miterlimit="10" d="M -0.600125 -0.602156 C -0.854031 -0.352156 -1.260281 -0.352156 -1.510281 -0.602156 C -1.764188 -0.852156 -1.764188 -1.262312 -1.510281 -1.512312 C -1.260281 -1.762312 -0.854031 -1.762312 -0.600125 -1.512312 C -0.350125 -1.262312 -0.350125 -0.852156 -0.600125 -0.602156 Z M 1.513156 1.511125 C 1.25925 1.761125 0.853 1.761125 0.603 1.511125 C 0.349094 1.261125 0.349094 0.854875 0.603 0.600969 C 0.853 0.350969 1.25925 0.350969 1.513156 0.600969 C 1.763156 0.854875 1.763156 1.261125 1.513156 1.511125 Z M 1.513156 1.511125 " transform="matrix(1, 0, 0, -1, 61.772, 46.433)"/>
</g>
<path fill="none" stroke-width="0.3985" stroke-linecap="butt" stroke-linejoin="miter" stroke="rgb(0%, 0%, 0%)" stroke-opacity="1" stroke-miterlimit="10" d="M 22.720031 10.212438 L 28.911438 6.638219 " transform="matrix(1, 0, 0, -1, 22.362, 44.939)"/>
<g fill="rgb(0%, 0%, 0%)" fill-opacity="1">
<use xlink:href="#glyph-0-3" x="70.246" y="6.068"/>
</g>
<g fill="rgb(0%, 0%, 0%)" fill-opacity="1">
<use xlink:href="#glyph-0-4" x="70.246" y="23.602"/>
</g>
<g fill="rgb(0%, 0%, 0%)" fill-opacity="1">
<use xlink:href="#glyph-0-5" x="70.246" y="29.978"/>
</g>
<g fill="rgb(0%, 0%, 0%)" fill-opacity="1">
<use xlink:href="#glyph-2-0" x="78.683" y="11.232"/>
</g>
<path fill="none" stroke-width="0.3985" stroke-linecap="butt" stroke-linejoin="miter" stroke="rgb(0%, 0%, 0%)" stroke-opacity="1" stroke-miterlimit="10" d="M 91.416938 18.349156 L 102.495063 18.349156 " transform="matrix(1, 0, 0, -1, 5.669, 44.939)"/>
<path fill-rule="nonzero" fill="rgb(0%, 0%, 0%)" fill-opacity="1" stroke-width="0.3985" stroke-linecap="butt" stroke-linejoin="round" stroke="rgb(0%, 0%, 0%)" stroke-opacity="1" stroke-miterlimit="10" d="M 4.446117 -0.00104625 L 1.160961 1.31536 L 2.809399 -0.00104625 L 1.160961 -1.317453 Z M 4.446117 -0.00104625 " transform="matrix(-1, 0, 0, 1, 99.79768, 26.59089)"/>
<path fill-rule="nonzero" fill="rgb(0%, 0%, 0%)" fill-opacity="1" stroke-width="0.3985" stroke-linecap="butt" stroke-linejoin="round" stroke="rgb(0%, 0%, 0%)" stroke-opacity="1" stroke-miterlimit="10" d="M 4.444968 0.00104625 L 1.159811 1.317453 L 2.808249 0.00104625 L 1.159811 -1.31536 Z M 4.444968 0.00104625 " transform="matrix(1, 0, 0, -1, 105.45347, 26.59089)"/>
<g fill="rgb(0%, 0%, 0%)" fill-opacity="1">
<use xlink:href="#glyph-0-0" x="128.361" y="6.068"/>
</g>
<g fill="rgb(0%, 0%, 0%)" fill-opacity="1">
<use xlink:href="#glyph-0-1" x="128.361" y="23.602"/>
</g>
<g fill="rgb(0%, 0%, 0%)" fill-opacity="1">
<use xlink:href="#glyph-0-2" x="128.361" y="29.978"/>
</g>
<g fill="rgb(0%, 0%, 0%)" fill-opacity="1">
<use xlink:href="#glyph-1-0" x="141.18" y="44.939"/>
</g>
<path fill-rule="nonzero" fill="rgb(0%, 0%, 0%)" fill-opacity="1" stroke-width="0.3985" stroke-linecap="butt" stroke-linejoin="miter" stroke="rgb(0%, 0%, 0%)" stroke-opacity="1" stroke-miterlimit="10" d="M 0.601812 0.601844 C 0.851812 0.351844 1.261969 0.351844 1.511969 0.601844 C 1.761969 0.851844 1.761969 1.262 1.511969 1.512 C 1.261969 1.762 0.851812 1.762 0.601812 1.512 C 0.351812 1.262 0.351812 0.851844 0.601812 0.601844 Z M -1.511469 -1.511437 C -1.261469 -1.761437 -0.851313 -1.761437 -0.601313 -1.511437 C -0.351313 -1.261437 -0.351313 -0.851281 -0.601313 -0.601281 C -0.851313 -0.351281 -1.261469 -0.351281 -1.511469 -0.601281 C -1.761469 -0.851281 -1.761469 -1.261437 -1.511469 -1.511437 Z M -1.511469 -1.511437 " transform="matrix(1, 0, 0, -1, 140.156, 36.637)"/>
<path fill-rule="nonzero" fill="rgb(0%, 0%, 0%)" fill-opacity="1" d="M 149.351562 47.035156 C 149.097656 46.785156 148.691406 46.785156 148.441406 47.035156 C 148.1875 47.285156 148.1875 47.695312 148.441406 47.945312 C 148.691406 48.195312 149.097656 48.195312 149.351562 47.945312 C 149.601562 47.695312 149.601562 47.285156 149.351562 47.035156 Z M 151.464844 44.921875 C 151.210938 44.671875 150.804688 44.671875 150.554688 44.921875 C 150.300781 45.171875 150.300781 45.578125 150.554688 45.832031 C 150.804688 46.082031 151.210938 46.082031 151.464844 45.832031 C 151.714844 45.578125 151.714844 45.171875 151.464844 44.921875 Z M 151.464844 44.921875 "/>
<g clip-path="url(#clip-4)">
<path fill="none" stroke-width="0.3985" stroke-linecap="butt" stroke-linejoin="miter" stroke="rgb(0%, 0%, 0%)" stroke-opacity="1" stroke-miterlimit="10" d="M -0.600437 -0.602156 C -0.854344 -0.352156 -1.260594 -0.352156 -1.510594 -0.602156 C -1.7645 -0.852156 -1.7645 -1.262312 -1.510594 -1.512312 C -1.260594 -1.762312 -0.854344 -1.762312 -0.600437 -1.512312 C -0.350437 -1.262312 -0.350437 -0.852156 -0.600437 -0.602156 Z M 1.512844 1.511125 C 1.258938 1.761125 0.852688 1.761125 0.602688 1.511125 C 0.348781 1.261125 0.348781 0.854875 0.602688 0.600969 C 0.852688 0.350969 1.258938 0.350969 1.512844 0.600969 C 1.762844 0.854875 1.762844 1.261125 1.512844 1.511125 Z M 1.512844 1.511125 " transform="matrix(1, 0, 0, -1, 149.952, 46.433)"/>
</g>
<g fill="rgb(0%, 0%, 0%)" fill-opacity="1">
<use xlink:href="#glyph-1-1" x="158.574" y="34.976"/>
</g>
<path fill="none" stroke-width="0.3985" stroke-linecap="butt" stroke-linejoin="miter" stroke="rgb(0%, 0%, 0%)" stroke-opacity="1" stroke-miterlimit="10" d="M 5.10225 7.5015 L 11.297562 11.075719 " transform="matrix(1, 0, 0, -1, 145.054, 44.939)"/>
<path fill="none" stroke-width="0.3985" stroke-linecap="butt" stroke-linejoin="miter" stroke="rgb(0%, 0%, 0%)" stroke-opacity="1" stroke-miterlimit="10" d="M 6.098344 5.774938 L 12.293656 9.349156 " transform="matrix(1, 0, 0, -1, 145.054, 44.939)"/>
<g fill="rgb(0%, 0%, 0%)" fill-opacity="1">
<use xlink:href="#glyph-1-0" x="158.436" y="15.051"/>
</g>
<path fill-rule="nonzero" fill="rgb(0%, 0%, 0%)" fill-opacity="1" stroke-width="0.3985" stroke-linecap="butt" stroke-linejoin="miter" stroke="rgb(0%, 0%, 0%)" stroke-opacity="1" stroke-miterlimit="10" d="M 0.0006875 -0.849094 C -0.354781 -0.849094 -0.643844 -1.138156 -0.643844 -1.493625 C -0.643844 -1.849094 -0.354781 -2.138156 0.0006875 -2.138156 C 0.356156 -2.138156 0.645219 -1.849094 0.645219 -1.493625 C 0.645219 -1.138156 0.356156 -0.849094 0.0006875 -0.849094 Z M 0.0006875 2.139188 C -0.354781 2.139188 -0.643844 1.850125 -0.643844 1.494656 C -0.643844 1.139188 -0.354781 0.850125 0.0006875 0.850125 C 0.356156 0.850125 0.645219 1.139188 0.645219 1.494656 C 0.645219 1.850125 0.356156 2.139188 0.0006875 2.139188 Z M 0.0006875 2.139188 " transform="matrix(1, 0, 0, -1, 167.679, 11.647)"/>
<path fill-rule="nonzero" fill="rgb(0%, 0%, 0%)" fill-opacity="1" stroke-width="0.3985" stroke-linecap="butt" stroke-linejoin="miter" stroke="rgb(0%, 0%, 0%)" stroke-opacity="1" stroke-miterlimit="10" d="M 0.850156 -0.001 C 0.850156 -0.356469 1.139219 -0.641625 1.494687 -0.641625 C 1.850156 -0.641625 2.139219 -0.356469 2.139219 -0.001 C 2.139219 0.354469 1.850156 0.643531 1.494687 0.643531 C 1.139219 0.643531 0.850156 0.354469 0.850156 -0.001 Z M -2.138125 -0.001 C -2.138125 -0.356469 -1.849063 -0.641625 -1.493594 -0.641625 C -1.138125 -0.641625 -0.852969 -0.356469 -0.852969 -0.001 C -0.852969 0.354469 -1.138125 0.643531 -1.493594 0.643531 C -1.849063 0.643531 -2.138125 0.354469 -2.138125 -0.001 Z M -2.138125 -0.001 " transform="matrix(1, 0, 0, -1, 162.31, 6.749)"/>
<path fill-rule="nonzero" fill="rgb(0%, 0%, 0%)" fill-opacity="1" stroke-width="0.3985" stroke-linecap="butt" stroke-linejoin="miter" stroke="rgb(0%, 0%, 0%)" stroke-opacity="1" stroke-miterlimit="10" d="M 0.00040625 0.850125 C 0.355875 0.850125 0.644937 1.139188 0.644937 1.494656 C 0.644937 1.850125 0.355875 2.139188 0.00040625 2.139188 C -0.355063 2.139188 -0.644125 1.850125 -0.644125 1.494656 C -0.644125 1.139188 -0.355063 0.850125 0.00040625 0.850125 Z M 0.00040625 -2.138156 C 0.355875 -2.138156 0.644937 -1.849094 0.644937 -1.493625 C 0.644937 -1.138156 0.355875 -0.849094 0.00040625 -0.849094 C -0.355063 -0.849094 -0.644125 -1.138156 -0.644125 -1.493625 C -0.644125 -1.849094 -0.355063 -2.138156 0.00040625 -2.138156 Z M 0.00040625 -2.138156 " transform="matrix(1, 0, 0, -1, 156.941, 11.647)"/>
<path fill="none" stroke-width="0.3985" stroke-linecap="butt" stroke-linejoin="miter" stroke="rgb(0%, 0%, 0%)" stroke-opacity="1" stroke-miterlimit="10" d="M 17.254594 18.763219 L 17.254594 27.896031 " transform="matrix(1, 0, 0, -1, 145.054, 44.939)"/>
<g fill="rgb(0%, 0%, 0%)" fill-opacity="1">
<use xlink:href="#glyph-1-0" x="175.692" y="44.939"/>
</g>
<path fill-rule="nonzero" fill="rgb(0%, 0%, 0%)" fill-opacity="1" stroke-width="0.3985" stroke-linecap="butt" stroke-linejoin="miter" stroke="rgb(0%, 0%, 0%)" stroke-opacity="1" stroke-miterlimit="10" d="M 0.602406 -0.601281 C 0.352406 -0.851281 0.352406 -1.261437 0.602406 -1.511437 C 0.852406 -1.761437 1.258656 -1.761437 1.512563 -1.511437 C 1.762563 -1.261437 1.762563 -0.851281 1.512563 -0.601281 C 1.258656 -0.351281 0.852406 -0.351281 0.602406 -0.601281 Z M -1.510875 1.512 C -1.764781 1.262 -1.764781 0.851844 -1.510875 0.601844 C -1.260875 0.351844 -0.854625 0.351844 -0.600719 0.601844 C -0.350719 0.851844 -0.350719 1.262 -0.600719 1.512 C -0.854625 1.762 -1.260875 1.762 -1.510875 1.512 Z M -1.510875 1.512 " transform="matrix(1, 0, 0, -1, 184.464, 36.637)"/>
<path fill-rule="nonzero" fill="rgb(0%, 0%, 0%)" fill-opacity="1" d="M 174.066406 45.832031 C 174.316406 45.578125 174.316406 45.171875 174.066406 44.921875 C 173.816406 44.671875 173.40625 44.671875 173.15625 44.921875 C 172.90625 45.171875 172.90625 45.578125 173.15625 45.832031 C 173.40625 46.082031 173.816406 46.082031 174.066406 45.832031 Z M 176.179688 47.945312 C 176.429688 47.695312 176.429688 47.285156 176.179688 47.035156 C 175.929688 46.785156 175.519531 46.785156 175.269531 47.035156 C 175.019531 47.285156 175.019531 47.695312 175.269531 47.945312 C 175.519531 48.195312 175.929688 48.195312 176.179688 47.945312 Z M 176.179688 47.945312 "/>
<g clip-path="url(#clip-5)">
<path fill="none" stroke-width="0.3985" stroke-linecap="butt" stroke-linejoin="miter" stroke="rgb(0%, 0%, 0%)" stroke-opacity="1" stroke-miterlimit="10" d="M -0.601594 0.600969 C -0.351594 0.854875 -0.351594 1.261125 -0.601594 1.511125 C -0.851594 1.761125 -1.26175 1.761125 -1.51175 1.511125 C -1.76175 1.261125 -1.76175 0.854875 -1.51175 0.600969 C -1.26175 0.350969 -0.851594 0.350969 -0.601594 0.600969 Z M 1.511687 -1.512312 C 1.761687 -1.262312 1.761687 -0.852156 1.511687 -0.602156 C 1.261687 -0.352156 0.851531 -0.352156 0.601531 -0.602156 C 0.351531 -0.852156 0.351531 -1.262312 0.601531 -1.512312 C 0.851531 -1.762312 1.261687 -1.762312 1.511687 -1.512312 Z M 1.511687 -1.512312 " transform="matrix(1, 0, 0, -1, 174.668, 46.433)"/>
</g>
<path fill-rule="nonzero" fill="rgb(0%, 0%, 0%)" fill-opacity="1" d="M 183.863281 47.035156 C 183.609375 46.785156 183.203125 46.785156 182.953125 47.035156 C 182.699219 47.285156 182.699219 47.695312 182.953125 47.945312 C 183.203125 48.195312 183.609375 48.195312 183.863281 47.945312 C 184.113281 47.695312 184.113281 47.285156 183.863281 47.035156 Z M 185.976562 44.921875 C 185.722656 44.671875 185.316406 44.671875 185.066406 44.921875 C 184.816406 45.171875 184.816406 45.578125 185.066406 45.832031 C 185.316406 46.082031 185.722656 46.082031 185.976562 45.832031 C 186.226562 45.578125 186.226562 45.171875 185.976562 44.921875 Z M 185.976562 44.921875 "/>
<g clip-path="url(#clip-6)">
<path fill="none" stroke-width="0.3985" stroke-linecap="butt" stroke-linejoin="miter" stroke="rgb(0%, 0%, 0%)" stroke-opacity="1" stroke-miterlimit="10" d="M -0.600719 -0.602156 C -0.854625 -0.352156 -1.260875 -0.352156 -1.510875 -0.602156 C -1.764781 -0.852156 -1.764781 -1.262312 -1.510875 -1.512312 C -1.260875 -1.762312 -0.854625 -1.762312 -0.600719 -1.512312 C -0.350719 -1.262312 -0.350719 -0.852156 -0.600719 -0.602156 Z M 1.512563 1.511125 C 1.258656 1.761125 0.852406 1.761125 0.602406 1.511125 C 0.352406 1.261125 0.352406 0.854875 0.602406 0.600969 C 0.852406 0.350969 1.258656 0.350969 1.512563 0.600969 C 1.762563 0.854875 1.762563 1.261125 1.512563 1.511125 Z M 1.512563 1.511125 " transform="matrix(1, 0, 0, -1, 184.464, 46.433)"/>
</g>
<path fill="none" stroke-width="0.3985" stroke-linecap="butt" stroke-linejoin="miter" stroke="rgb(0%, 0%, 0%)" stroke-opacity="1" stroke-miterlimit="10" d="M 22.719437 10.212438 L 28.910844 6.638219 " transform="matrix(1, 0, 0, -1, 145.054, 44.939)"/>
<g fill="rgb(0%, 0%, 0%)" fill-opacity="1">
<use xlink:href="#glyph-0-3" x="192.938" y="6.068"/>
</g>
<g fill="rgb(0%, 0%, 0%)" fill-opacity="1">
<use xlink:href="#glyph-0-4" x="192.938" y="23.602"/>
</g>
<g fill="rgb(0%, 0%, 0%)" fill-opacity="1">
<use xlink:href="#glyph-0-5" x="192.938" y="29.978"/>
</g>
<g fill="rgb(0%, 0%, 0%)" fill-opacity="1">
<use xlink:href="#glyph-2-0" x="201.375" y="11.232"/>
</g>
<path fill="none" stroke-width="0.3985" stroke-linecap="butt" stroke-linejoin="miter" stroke="rgb(0%, 0%, 0%)" stroke-opacity="1" stroke-miterlimit="10" d="M 214.11225 18.349156 L 225.186469 18.349156 " transform="matrix(1, 0, 0, -1, 5.669, 44.939)"/>
<path fill-rule="nonzero" fill="rgb(0%, 0%, 0%)" fill-opacity="1" stroke-width="0.3985" stroke-linecap="butt" stroke-linejoin="round" stroke="rgb(0%, 0%, 0%)" stroke-opacity="1" stroke-miterlimit="10" d="M 4.444465 -0.00104625 L 1.163215 1.31536 L 2.807746 -0.00104625 L 1.163215 -1.317453 Z M 4.444465 -0.00104625 " transform="matrix(-1, 0, 0, 1, 222.49134, 26.59089)"/>
<path fill-rule="nonzero" fill="rgb(0%, 0%, 0%)" fill-opacity="1" stroke-width="0.3985" stroke-linecap="butt" stroke-linejoin="round" stroke="rgb(0%, 0%, 0%)" stroke-opacity="1" stroke-miterlimit="10" d="M 4.44662 0.00104625 L 1.161464 1.317453 L 2.809901 0.00104625 L 1.161464 -1.31536 Z M 4.44662 0.00104625 " transform="matrix(1, 0, 0, -1, 228.14713, 26.59089)"/>
<g fill="rgb(0%, 0%, 0%)" fill-opacity="1">
<use xlink:href="#glyph-0-0" x="251.053" y="6.068"/>
</g>
<g fill="rgb(0%, 0%, 0%)" fill-opacity="1">
<use xlink:href="#glyph-0-1" x="251.053" y="23.602"/>
</g>
<g fill="rgb(0%, 0%, 0%)" fill-opacity="1">
<use xlink:href="#glyph-0-2" x="251.053" y="29.978"/>
</g>
<g fill="rgb(0%, 0%, 0%)" fill-opacity="1">
<use xlink:href="#glyph-1-0" x="263.872" y="44.939"/>
</g>
<path fill-rule="nonzero" fill="rgb(0%, 0%, 0%)" fill-opacity="1" stroke-width="0.3985" stroke-linecap="butt" stroke-linejoin="miter" stroke="rgb(0%, 0%, 0%)" stroke-opacity="1" stroke-miterlimit="10" d="M 0.601219 0.601844 C 0.851219 0.351844 1.261375 0.351844 1.511375 0.601844 C 1.761375 0.851844 1.761375 1.262 1.511375 1.512 C 1.261375 1.762 0.851219 1.762 0.601219 1.512 C 0.351219 1.262 0.351219 0.851844 0.601219 0.601844 Z M -1.512062 -1.511437 C -1.262062 -1.761437 -0.851906 -1.761437 -0.601906 -1.511437 C -0.351906 -1.261437 -0.351906 -0.851281 -0.601906 -0.601281 C -0.851906 -0.351281 -1.262062 -0.351281 -1.512062 -0.601281 C -1.762062 -0.851281 -1.762062 -1.261437 -1.512062 -1.511437 Z M -1.512062 -1.511437 " transform="matrix(1, 0, 0, -1, 262.848, 36.637)"/>
<path fill-rule="nonzero" fill="rgb(0%, 0%, 0%)" fill-opacity="1" d="M 262.246094 45.832031 C 262.496094 45.578125 262.496094 45.171875 262.246094 44.921875 C 261.996094 44.671875 261.585938 44.671875 261.335938 44.921875 C 261.085938 45.171875 261.085938 45.578125 261.335938 45.832031 C 261.585938 46.082031 261.996094 46.082031 262.246094 45.832031 Z M 264.359375 47.945312 C 264.609375 47.695312 264.609375 47.285156 264.359375 47.035156 C 264.109375 46.785156 263.699219 46.785156 263.449219 47.035156 C 263.199219 47.285156 263.199219 47.695312 263.449219 47.945312 C 263.699219 48.195312 264.109375 48.195312 264.359375 47.945312 Z M 264.359375 47.945312 "/>
<g clip-path="url(#clip-7)">
<path fill="none" stroke-width="0.3985" stroke-linecap="butt" stroke-linejoin="miter" stroke="rgb(0%, 0%, 0%)" stroke-opacity="1" stroke-miterlimit="10" d="M -0.601906 0.600969 C -0.351906 0.854875 -0.351906 1.261125 -0.601906 1.511125 C -0.851906 1.761125 -1.262062 1.761125 -1.512062 1.511125 C -1.762062 1.261125 -1.762062 0.854875 -1.512062 0.600969 C -1.262062 0.350969 -0.851906 0.350969 -0.601906 0.600969 Z M 1.511375 -1.512312 C 1.761375 -1.262312 1.761375 -0.852156 1.511375 -0.602156 C 1.261375 -0.352156 0.851219 -0.352156 0.601219 -0.602156 C 0.351219 -0.852156 0.351219 -1.262312 0.601219 -1.512312 C 0.851219 -1.762312 1.261375 -1.762312 1.511375 -1.512312 Z M 1.511375 -1.512312 " transform="matrix(1, 0, 0, -1, 262.848, 46.433)"/>
</g>
<path fill-rule="nonzero" fill="rgb(0%, 0%, 0%)" fill-opacity="1" d="M 272.042969 47.035156 C 271.789062 46.785156 271.382812 46.785156 271.132812 47.035156 C 270.882812 47.285156 270.882812 47.695312 271.132812 47.945312 C 271.382812 48.195312 271.789062 48.195312 272.042969 47.945312 C 272.292969 47.695312 272.292969 47.285156 272.042969 47.035156 Z M 274.15625 44.921875 C 273.90625 44.671875 273.496094 44.671875 273.246094 44.921875 C 272.996094 45.171875 272.996094 45.578125 273.246094 45.832031 C 273.496094 46.082031 273.90625 46.082031 274.15625 45.832031 C 274.40625 45.578125 274.40625 45.171875 274.15625 44.921875 Z M 274.15625 44.921875 "/>
<g clip-path="url(#clip-8)">
<path fill="none" stroke-width="0.3985" stroke-linecap="butt" stroke-linejoin="miter" stroke="rgb(0%, 0%, 0%)" stroke-opacity="1" stroke-miterlimit="10" d="M -0.601031 -0.602156 C -0.854937 -0.352156 -1.261187 -0.352156 -1.511187 -0.602156 C -1.761187 -0.852156 -1.761187 -1.262312 -1.511187 -1.512312 C -1.261187 -1.762312 -0.854937 -1.762312 -0.601031 -1.512312 C -0.351031 -1.262312 -0.351031 -0.852156 -0.601031 -0.602156 Z M 1.51225 1.511125 C 1.26225 1.761125 0.852094 1.761125 0.602094 1.511125 C 0.352094 1.261125 0.352094 0.854875 0.602094 0.600969 C 0.852094 0.350969 1.26225 0.350969 1.51225 0.600969 C 1.76225 0.854875 1.76225 1.261125 1.51225 1.511125 Z M 1.51225 1.511125 " transform="matrix(1, 0, 0, -1, 272.644, 46.433)"/>
</g>
<g fill="rgb(0%, 0%, 0%)" fill-opacity="1">
<use xlink:href="#glyph-1-1" x="281.266" y="34.976"/>
</g>
<path fill="none" stroke-width="0.3985" stroke-linecap="butt" stroke-linejoin="miter" stroke="rgb(0%, 0%, 0%)" stroke-opacity="1" stroke-miterlimit="10" d="M 5.601656 6.638219 L 11.793063 10.212438 " transform="matrix(1, 0, 0, -1, 267.746, 44.939)"/>
<g fill="rgb(0%, 0%, 0%)" fill-opacity="1">
<use xlink:href="#glyph-1-0" x="281.128" y="15.051"/>
</g>
<path fill-rule="nonzero" fill="rgb(0%, 0%, 0%)" fill-opacity="1" stroke-width="0.3985" stroke-linecap="butt" stroke-linejoin="miter" stroke="rgb(0%, 0%, 0%)" stroke-opacity="1" stroke-miterlimit="10" d="M 0.00009375 -0.849094 C -0.355375 -0.849094 -0.644438 -1.138156 -0.644438 -1.493625 C -0.644438 -1.849094 -0.355375 -2.138156 0.00009375 -2.138156 C 0.355562 -2.138156 0.644625 -1.849094 0.644625 -1.493625 C 0.644625 -1.138156 0.355562 -0.849094 0.00009375 -0.849094 Z M 0.00009375 2.139188 C -0.355375 2.139188 -0.644438 1.850125 -0.644438 1.494656 C -0.644438 1.139188 -0.355375 0.850125 0.00009375 0.850125 C 0.355562 0.850125 0.644625 1.139188 0.644625 1.494656 C 0.644625 1.850125 0.355562 2.139188 0.00009375 2.139188 Z M 0.00009375 2.139188 " transform="matrix(1, 0, 0, -1, 290.371, 11.647)"/>
<path fill-rule="nonzero" fill="rgb(0%, 0%, 0%)" fill-opacity="1" stroke-width="0.3985" stroke-linecap="butt" stroke-linejoin="miter" stroke="rgb(0%, 0%, 0%)" stroke-opacity="1" stroke-miterlimit="10" d="M 0.849562 -0.001 C 0.849562 -0.356469 1.138625 -0.641625 1.494094 -0.641625 C 1.849562 -0.641625 2.138625 -0.356469 2.138625 -0.001 C 2.138625 0.354469 1.849562 0.643531 1.494094 0.643531 C 1.138625 0.643531 0.849562 0.354469 0.849562 -0.001 Z M -2.138719 -0.001 C -2.138719 -0.356469 -1.849656 -0.641625 -1.494188 -0.641625 C -1.138719 -0.641625 -0.849656 -0.356469 -0.849656 -0.001 C -0.849656 0.354469 -1.138719 0.643531 -1.494188 0.643531 C -1.849656 0.643531 -2.138719 0.354469 -2.138719 -0.001 Z M -2.138719 -0.001 " transform="matrix(1, 0, 0, -1, 285.002, 6.749)"/>
<path fill-rule="nonzero" fill="rgb(0%, 0%, 0%)" fill-opacity="1" stroke-width="0.3985" stroke-linecap="butt" stroke-linejoin="miter" stroke="rgb(0%, 0%, 0%)" stroke-opacity="1" stroke-miterlimit="10" d="M -0.0001875 0.850125 C 0.355281 0.850125 0.644344 1.139188 0.644344 1.494656 C 0.644344 1.850125 0.355281 2.139188 -0.0001875 2.139188 C -0.355656 2.139188 -0.644719 1.850125 -0.644719 1.494656 C -0.644719 1.139188 -0.355656 0.850125 -0.0001875 0.850125 Z M -0.0001875 -2.138156 C 0.355281 -2.138156 0.644344 -1.849094 0.644344 -1.493625 C 0.644344 -1.138156 0.355281 -0.849094 -0.0001875 -0.849094 C -0.355656 -0.849094 -0.644719 -1.138156 -0.644719 -1.493625 C -0.644719 -1.849094 -0.355656 -2.138156 -0.0001875 -2.138156 Z M -0.0001875 -2.138156 " transform="matrix(1, 0, 0, -1, 279.633, 11.647)"/>
<path fill="none" stroke-width="0.3985" stroke-linecap="butt" stroke-linejoin="miter" stroke="rgb(0%, 0%, 0%)" stroke-opacity="1" stroke-miterlimit="10" d="M 17.257906 18.763219 L 17.257906 27.896031 " transform="matrix(1, 0, 0, -1, 267.746, 44.939)"/>
<g fill="rgb(0%, 0%, 0%)" fill-opacity="1">
<use xlink:href="#glyph-1-0" x="298.384" y="44.939"/>
</g>
<path fill-rule="nonzero" fill="rgb(0%, 0%, 0%)" fill-opacity="1" stroke-width="0.3985" stroke-linecap="butt" stroke-linejoin="miter" stroke="rgb(0%, 0%, 0%)" stroke-opacity="1" stroke-miterlimit="10" d="M 0.601813 -0.601281 C 0.351813 -0.851281 0.351813 -1.261437 0.601813 -1.511437 C 0.851813 -1.761437 1.261969 -1.761437 1.511969 -1.511437 C 1.761969 -1.261437 1.761969 -0.851281 1.511969 -0.601281 C 1.261969 -0.351281 0.851813 -0.351281 0.601813 -0.601281 Z M -1.511469 1.512 C -1.761469 1.262 -1.761469 0.851844 -1.511469 0.601844 C -1.261469 0.351844 -0.851312 0.351844 -0.601312 0.601844 C -0.351312 0.851844 -0.351312 1.262 -0.601312 1.512 C -0.851312 1.762 -1.261469 1.762 -1.511469 1.512 Z M -1.511469 1.512 " transform="matrix(1, 0, 0, -1, 307.156, 36.637)"/>
<path fill-rule="nonzero" fill="rgb(0%, 0%, 0%)" fill-opacity="1" d="M 296.757812 45.832031 C 297.007812 45.578125 297.007812 45.171875 296.757812 44.921875 C 296.507812 44.671875 296.097656 44.671875 295.847656 44.921875 C 295.597656 45.171875 295.597656 45.578125 295.847656 45.832031 C 296.097656 46.082031 296.507812 46.082031 296.757812 45.832031 Z M 298.871094 47.945312 C 299.121094 47.695312 299.121094 47.285156 298.871094 47.035156 C 298.621094 46.785156 298.214844 46.785156 297.960938 47.035156 C 297.710938 47.285156 297.710938 47.695312 297.960938 47.945312 C 298.214844 48.195312 298.621094 48.195312 298.871094 47.945312 Z M 298.871094 47.945312 "/>
<g clip-path="url(#clip-9)">
<path fill="none" stroke-width="0.3985" stroke-linecap="butt" stroke-linejoin="miter" stroke="rgb(0%, 0%, 0%)" stroke-opacity="1" stroke-miterlimit="10" d="M -0.602187 0.600969 C -0.352187 0.854875 -0.352187 1.261125 -0.602187 1.511125 C -0.852187 1.761125 -1.262344 1.761125 -1.512344 1.511125 C -1.762344 1.261125 -1.762344 0.854875 -1.512344 0.600969 C -1.262344 0.350969 -0.852187 0.350969 -0.602187 0.600969 Z M 1.511094 -1.512312 C 1.761094 -1.262312 1.761094 -0.852156 1.511094 -0.602156 C 1.261094 -0.352156 0.854844 -0.352156 0.600938 -0.602156 C 0.350938 -0.852156 0.350938 -1.262312 0.600938 -1.512312 C 0.854844 -1.762312 1.261094 -1.762312 1.511094 -1.512312 Z M 1.511094 -1.512312 " transform="matrix(1, 0, 0, -1, 297.36, 46.433)"/>
</g>
<path fill="none" stroke-width="0.3985" stroke-linecap="butt" stroke-linejoin="miter" stroke="rgb(0%, 0%, 0%)" stroke-opacity="1" stroke-miterlimit="10" d="M 23.214938 11.075719 L 29.41025 7.5015 " transform="matrix(1, 0, 0, -1, 267.746, 44.939)"/>
<path fill="none" stroke-width="0.3985" stroke-linecap="butt" stroke-linejoin="miter" stroke="rgb(0%, 0%, 0%)" stroke-opacity="1" stroke-miterlimit="10" d="M 22.218844 9.349156 L 28.414156 5.774938 " transform="matrix(1, 0, 0, -1, 267.746, 44.939)"/>
<g fill="rgb(0%, 0%, 0%)" fill-opacity="1">
<use xlink:href="#glyph-0-3" x="315.63" y="6.068"/>
</g>
<g fill="rgb(0%, 0%, 0%)" fill-opacity="1">
<use xlink:href="#glyph-0-4" x="315.63" y="23.602"/>
</g>
<g fill="rgb(0%, 0%, 0%)" fill-opacity="1">
<use xlink:href="#glyph-0-5" x="315.63" y="29.978"/>
</g>
<g fill="rgb(0%, 0%, 0%)" fill-opacity="1">
<use xlink:href="#glyph-2-0" x="319.815" y="11.232"/>
</g>
</svg>
